<svg id="Capa_1" enable-background="new 0 0 512 512" height="512" viewBox="0 0 512 512" width="512" xmlns="http://www.w3.org/2000/svg" xmlns:xlink="http://www.w3.org/1999/xlink">
  <linearGradient id="SVGID_1_" gradientUnits="userSpaceOnUse" x1="256" x2="256" y1="431" y2="21">
    <stop offset="0" stop-color="#00b59b" />
    <stop offset="1" stop-color="#4effa8" />
  </linearGradient>
  <linearGradient id="SVGID_2_" gradientUnits="userSpaceOnUse" x1="256" x2="256" y1="491" y2="161">
    <stop offset="0" stop-color="#a4ffe7" />
    <stop offset=".9973" stop-color="#e9fff3" />
  </linearGradient>
  <g>
    <path d="m497 431h-482c-8.284 0-15-206.716-15-215v-150c0-24.813 20.187-45 45-45h122.459c17.154 0 32.577 9.532 40.25 24.875l17.562 35.125h241.729c24.813 0 45 20.187 45 45v90c0 8.284-6.716 215-15 215z" fill="url(#SVGID_1_)" />
    <path d="m467 161h-422c-24.813 0-45 20.187-45 45v240c0 24.813 20.187 45 45 45h422c24.813 0 45-20.187 45-45v-240c0-24.813-20.187-45-45-45zm-406 97.5c0-20.677 16.822-37.5 37.5-37.5s37.5 16.823 37.5 37.5-16.822 37.5-37.5 37.5-37.5-16.823-37.5-37.5zm375 172.5h-340c-12.445 0-19.477-14.281-11.889-24.146l100-130c6.005-7.806 17.774-7.806 23.779 0l33.668 43.769 61.962-92.943c5.937-8.906 19.024-8.906 24.961 0l120 180c6.645 9.968-.501 23.32-12.481 23.32z" fill="url(#SVGID_2_)" />
  </g>
</svg>