<?xml version="1.0"?>
<svg xmlns="http://www.w3.org/2000/svg" xmlns:xlink="http://www.w3.org/1999/xlink" xmlns:svgjs="http://svgjs.com/svgjs" version="1.1" width="512" height="512" x="0" y="0" viewBox="0 0 24 24" style="enable-background:new 0 0 512 512" xml:space="preserve" class=""><g><path xmlns="http://www.w3.org/2000/svg" d="m19.5 20.5h-3c-.414 0-.75-.336-.75-.75v-1.456c0-.407-.242-.742-.445-.951-.848-.875-1.21-2.069-.993-3.278.27-1.503 1.508-2.738 3.01-3.004 1.108-.2 2.235.101 3.087.816.853.715 1.341 1.762 1.341 2.874 0 1.002-.395 1.943-1.112 2.65-.177.175-.388.457-.388.808v1.542c0 .413-.336.749-.75.749z" fill="#bfc0bf" data-original="#000000" style="" class=""/><path xmlns="http://www.w3.org/2000/svg" d="m23.25 24h-10.5c-.414 0-.75-.336-.75-.75v-1.867c0-.881.659-1.627 1.533-1.736l3.124-.391 2.593-.006 3.217.396c.874.109 1.533.856 1.533 1.737v1.867c0 .414-.336.75-.75.75z" fill="#bfc0bf" data-original="#000000" style="" class=""/><path xmlns="http://www.w3.org/2000/svg" d="m12.25 2h-1.1c-.33-1.15-1.39-2-2.65-2s-2.32.85-2.65 2h-1.1c-.41 0-.75.34-.75.75v1.5c0 .96.79 1.75 1.75 1.75h5.5c.96 0 1.75-.79 1.75-1.75v-1.5c0-.41-.34-.75-.75-.75z" fill="#bfc0bf" data-original="#000000" style="" class=""/><path xmlns="http://www.w3.org/2000/svg" d="m14.25 3h-.25v1.25c0 1.52-1.23 2.75-2.75 2.75h-5.5c-1.52 0-2.75-1.23-2.75-2.75v-1.25h-.25c-1.52 0-2.75 1.23-2.75 2.75v12.5c0 1.52 1.23 2.75 2.75 2.75h7.27c.17-1.64 1.41-3 3.05-3.3-.14-.22-.26-.46-.36-.7h-8.96c-.41 0-.75-.34-.75-.75s.34-.75.75-.75h8.55c-.08-.57-.07-1.16.03-1.75h-8.58c-.41 0-.75-.34-.75-.75s.34-.75.75-.75h9.08c.79-1.62 2.34-2.84 4.14-3.16h.03v-3.34c0-1.52-1.23-2.75-2.75-2.75zm-1 7.5h-9.5c-.41 0-.75-.34-.75-.75s.34-.75.75-.75h9.5c.41 0 .75.34.75.75s-.34.75-.75.75z" fill="#bfc0bf" data-original="#000000" style="" class=""/></g></svg>
