<svg id="Capa_1" enable-background="new 0 0 512.012 512.012" height="512" viewBox="0 0 512.012 512.012" width="512" xmlns="http://www.w3.org/2000/svg">
  <g>
    <path style="fill:#ffffff;" d="m332.012.005c-99.252 0-180 80.748-180 180 0 42.436 14.771 81.482 39.428 112.288l-39.428 39.428-28.284-28.284-105.217 105.215c-24.09 24.091-24.821 62.617-1.292 86.145 23.501 23.5 62.049 22.805 86.146-1.292l105.216-105.216-28.284-28.284 39.428-39.428c30.806 24.657 69.851 39.428 112.287 39.428 99.252 0 180-80.748 180-180s-80.748-180-180-180zm-256.932 465.216c-8.877 8.876-22.116 8.752-29.576 1.292-7.498-7.498-7.544-20.74 1.293-29.576l76.932-76.932 28.284 28.284zm256.932-145.216c-77.196 0-140-62.804-140-140s62.804-140 140-140 140 62.804 140 140-62.804 140-140 140z" />
    <path style="fill:#ffffff;" d="m352.012 120.005h-40v40h-40v40h40v40h40v-40h40v-40h-40z" />
  </g>
</svg>